<svg id="visual" viewBox="0 0 900 600" width="900" height="600" xmlns="http://www.w3.org/2000/svg" xmlns:xlink="http://www.w3.org/1999/xlink" version="1.1"><rect x="0" y="0" width="900" height="600" fill="#002233"></rect><path d="M0 497L21.5 490.2C43 483.3 86 469.7 128.8 462.8C171.7 456 214.3 456 257.2 445.2C300 434.3 343 412.7 385.8 413.7C428.7 414.7 471.3 438.3 514.2 442.8C557 447.3 600 432.7 642.8 420.3C685.7 408 728.3 398 771.2 398.2C814 398.3 857 408.7 878.5 413.8L900 419L900 601L878.5 601C857 601 814 601 771.2 601C728.3 601 685.7 601 642.8 601C600 601 557 601 514.2 601C471.3 601 428.7 601 385.8 601C343 601 300 601 257.2 601C214.3 601 171.7 601 128.8 601C86 601 43 601 21.5 601L0 601Z" fill="#0066FF" stroke-linecap="round" stroke-linejoin="miter"></path></svg>